{
  "accessors": [
    {
      "bufferView": 2,
      "componentType": 5126,
      "count": 65532,
      "max": [
        1.4107038974761963,
        1.2563389539718628,
        0.010776042938232422
      ],
      "min": [
        -1.0891404151916504,
        -0.01865553855895996,
        -2.341343641281128
      ],
      "type": "VEC3"
    },
    {
      "bufferView": 2,
      "byteOffset": 786384,
      "componentType": 5126,
      "count": 65532,
      "max": [
        0.9997990131378174,
        0.9999880194664001,
        0.14085491001605988
      ],
      "min": [
        -0.8745757937431335,
        -0.7283692359924316,
        -0.9999308586120605
      ],
      "type": "VEC3"
    },
    {
      "bufferView": 3,
      "componentType": 5126,
      "count": 65532,
      "max": [
        0.33725491166114807,
        0.03529411926865578,
        0.03529411926865578,
        1.0
      ],
      "min": [
        0.03529411926865578,
        0.003921568859368563,
        0.0,
        1.0
      ],
      "type": "VEC4"
    },
    {
      "bufferView": 0,
      "componentType": 5125,
      "count": 98298,
      "type": "SCALAR"
    },
    {
      "bufferView": 2,
      "byteOffset": 1572768,
      "componentType": 5126,
      "count": 65532,
      "max": [
        -0.007944047451019287,
        1.0016599893569946,
        0.009035349823534489
      ],
      "min": [
        -1.4104074239730835,
        -0.541627049446106,
        -2.8563103675842285
      ],
      "type": "VEC3"
    },
    {
      "bufferView": 2,
      "byteOffset": 2359152,
      "componentType": 5126,
      "count": 65532,
      "max": [
        0.999866247177124,
        0.9997380971908569,
        0.8599895238876343
      ],
      "min": [
        -0.9997859001159668,
        -0.999997079372406,
        -0.999843180179596
      ],
      "type": "VEC3"
    },
    {
      "bufferView": 3,
      "byteOffset": 1048512,
      "componentType": 5126,
      "count": 65532,
      "max": [
        0.33725491166114807,
        0.03529411926865578,
        0.03529411926865578,
        1.0
      ],
      "min": [
        0.03529411926865578,
        0.003921568859368563,
        0.0,
        1.0
      ],
      "type": "VEC4"
    },
    {
      "bufferView": 0,
      "byteOffset": 393192,
      "componentType": 5125,
      "count": 98298,
      "type": "SCALAR"
    },
    {
      "bufferView": 2,
      "byteOffset": 3145536,
      "componentType": 5126,
      "count": 65532,
      "max": [
        -0.0013470160774886608,
        0.8952367305755615,
        1.821881651878357
      ],
      "min": [
        -1.4075130224227905,
        -0.6600298881530762,
        -2.000039577484131
      ],
      "type": "VEC3"
    },
    {
      "bufferView": 2,
      "byteOffset": 3931920,
      "componentType": 5126,
      "count": 65532,
      "max": [
        0.9591253995895386,
        0.9999879002571106,
        0.9996070861816406
      ],
      "min": [
        -0.9996829032897949,
        -0.9999967217445374,
        -0.9689629077911377
      ],
      "type": "VEC3"
    },
    {
      "bufferView": 3,
      "byteOffset": 2097024,
      "componentType": 5126,
      "count": 65532,
      "max": [
        0.33725491166114807,
        0.03529411926865578,
        0.03529411926865578,
        1.0
      ],
      "min": [
        0.03529411926865578,
        0.003921568859368563,
        0.0,
        1.0
      ],
      "type": "VEC4"
    },
    {
      "bufferView": 0,
      "byteOffset": 786384,
      "componentType": 5125,
      "count": 98298,
      "type": "SCALAR"
    },
    {
      "bufferView": 2,
      "byteOffset": 4718304,
      "componentType": 5126,
      "count": 65532,
      "max": [
        -0.0003229713474866003,
        1.2293851375579834,
        1.8220808506011963
      ],
      "min": [
        -1.6826449632644653,
        -0.5943406224250793,
        -2.127746105194092
      ],
      "type": "VEC3"
    },
    {
      "bufferView": 2,
      "byteOffset": 5504688,
      "componentType": 5126,
      "count": 65532,
      "max": [
        0.9574366807937622,
        0.9977032542228699,
        0.9992534518241882
      ],
      "min": [
        -0.9992650151252747,
        -0.9973807334899902,
        -0.9965338706970215
      ],
      "type": "VEC3"
    },
    {
      "bufferView": 3,
      "byteOffset": 3145536,
      "componentType": 5126,
      "count": 65532,
      "max": [
        0.33725491166114807,
        0.03529411926865578,
        0.03529411926865578,
        1.0
      ],
      "min": [
        0.03529411926865578,
        0.003921568859368563,
        0.0,
        1.0
      ],
      "type": "VEC4"
    },
    {
      "bufferView": 0,
      "byteOffset": 1179576,
      "componentType": 5125,
      "count": 98298,
      "type": "SCALAR"
    },
    {
      "bufferView": 2,
      "byteOffset": 6291072,
      "componentType": 5126,
      "count": 65532,
      "max": [
        1.370307207107544,
        1.252026081085205,
        1.8221601247787476
      ],
      "min": [
        -1.371923804283142,
        -0.6600298881530762,
        -2.3377060890197754
      ],
      "type": "VEC3"
    },
    {
      "bufferView": 2,
      "byteOffset": 7077456,
      "componentType": 5126,
      "count": 65532,
      "max": [
        0.9758974313735962,
        0.9996075630187988,
        0.9999552965164185
      ],
      "min": [
        -0.9264118075370789,
        -0.9999988675117493,
        -0.9999204874038696
      ],
      "type": "VEC3"
    },
    {
      "bufferView": 3,
      "byteOffset": 4194048,
      "componentType": 5126,
      "count": 65532,
      "max": [
        0.33725491166114807,
        0.03529411926865578,
        0.03529411926865578,
        1.0
      ],
      "min": [
        0.03529411926865578,
        0.003921568859368563,
        0.0,
        1.0
      ],
      "type": "VEC4"
    },
    {
      "bufferView": 0,
      "byteOffset": 1572768,
      "componentType": 5125,
      "count": 98298,
      "type": "SCALAR"
    },
    {
      "bufferView": 2,
      "byteOffset": 7863840,
      "componentType": 5126,
      "count": 65532,
      "max": [
        1.4076745510101318,
        1.2310619354248047,
        1.8066071271896362
      ],
      "min": [
        -0.010931134223937988,
        -0.5416449904441833,
        -2.163109302520752
      ],
      "type": "VEC3"
    },
    {
      "bufferView": 2,
      "byteOffset": 8650224,
      "componentType": 5126,
      "count": 65532,
      "max": [
        0.9944644570350647,
        0.9949856400489807,
        0.9994928240776062
      ],
      "min": [
        -0.45900601148605347,
        -0.9999997019767761,
        -0.7488837838172913
      ],
      "type": "VEC3"
    },
    {
      "bufferView": 3,
      "byteOffset": 5242560,
      "componentType": 5126,
      "count": 65532,
      "max": [
        0.33725491166114807,
        0.03529411926865578,
        0.03529411926865578,
        1.0
      ],
      "min": [
        0.03529411926865578,
        0.003921568859368563,
        0.0,
        1.0
      ],
      "type": "VEC4"
    },
    {
      "bufferView": 0,
      "byteOffset": 1965960,
      "componentType": 5125,
      "count": 98298,
      "type": "SCALAR"
    },
    {
      "bufferView": 2,
      "byteOffset": 9436608,
      "componentType": 5126,
      "count": 65532,
      "max": [
        1.6844274997711182,
        0.005108863115310669,
        0.009493827819824219
      ],
      "min": [
        -0.008398354053497314,
        -0.5414010882377625,
        -2.4315598011016846
      ],
      "type": "VEC3"
    },
    {
      "bufferView": 2,
      "byteOffset": 10222992,
      "componentType": 5126,
      "count": 65532,
      "max": [
        0.9998430609703064,
        0.9989368319511414,
        0.861707866191864
      ],
      "min": [
        -0.9856631755828857,
        -0.9999818205833435,
        -0.9957754015922546
      ],
      "type": "VEC3"
    },
    {
      "bufferView": 3,
      "byteOffset": 6291072,
      "componentType": 5126,
      "count": 65532,
      "max": [
        0.33725491166114807,
        0.03529411926865578,
        0.03529411926865578,
        1.0
      ],
      "min": [
        0.03529411926865578,
        0.003921568859368563,
        0.0,
        1.0
      ],
      "type": "VEC4"
    },
    {
      "bufferView": 0,
      "byteOffset": 2359152,
      "componentType": 5125,
      "count": 98298,
      "type": "SCALAR"
    },
    {
      "bufferView": 2,
      "byteOffset": 11009376,
      "componentType": 5126,
      "count": 65532,
      "max": [
        1.0818421840667725,
        1.256243109703064,
        0.011259794235229492
      ],
      "min": [
        -0.01085519790649414,
        -0.4879419505596161,
        -2.991675615310669
      ],
      "type": "VEC3"
    },
    {
      "bufferView": 2,
      "byteOffset": 11795760,
      "componentType": 5126,
      "count": 65532,
      "max": [
        0.9967233538627625,
        0.9999877214431763,
        0.6322385668754578
      ],
      "min": [
        -0.9999896287918091,
        -0.9996403455734253,
        -0.9993391633033752
      ],
      "type": "VEC3"
    },
    {
      "bufferView": 3,
      "byteOffset": 7339584,
      "componentType": 5126,
      "count": 65532,
      "max": [
        0.33725491166114807,
        0.03529411926865578,
        0.03529411926865578,
        1.0
      ],
      "min": [
        0.03529411926865578,
        0.003921568859368563,
        0.0,
        1.0
      ],
      "type": "VEC4"
    },
    {
      "bufferView": 0,
      "byteOffset": 2752344,
      "componentType": 5125,
      "count": 98298,
      "type": "SCALAR"
    },
    {
      "bufferView": 2,
      "byteOffset": 12582144,
      "componentType": 5126,
      "count": 6868,
      "max": [
        1.216059923171997,
        0.9020931720733643,
        0.00817561149597168
      ],
      "min": [
        0.9371405243873596,
        -0.010810494422912598,
        -1.5687179565429688
      ],
      "type": "VEC3"
    },
    {
      "bufferView": 2,
      "byteOffset": 12664560,
      "componentType": 5126,
      "count": 6868,
      "max": [
        0.94968181848526,
        0.7364515066146851,
        0.09244227409362793
      ],
      "min": [
        0.6701445579528809,
        -0.40599846839904785,
        -0.5452089905738831
      ],
      "type": "VEC3"
    },
    {
      "bufferView": 3,
      "byteOffset": 8388096,
      "componentType": 5126,
      "count": 6868,
      "max": [
        0.33725491166114807,
        0.007843137718737125,
        0.003921568859368563,
        1.0
      ],
      "min": [
        0.30588236451148987,
        0.003921568859368563,
        0.0,
        1.0
      ],
      "type": "VEC4"
    },
    {
      "bufferView": 0,
      "byteOffset": 3145536,
      "componentType": 5125,
      "count": 10302,
      "type": "SCALAR"
    },
    {
      "bufferView": 2,
      "byteOffset": 12746976,
      "componentType": 5126,
      "count": 386,
      "max": [
        2.3329429626464844,
        2.938891649246216,
        0.3832189440727234
      ],
      "min": [
        -1.9353877305984497,
        0.9673609733581543,
        -0.4295058846473694
      ],
      "type": "VEC3"
    },
    {
      "bufferView": 2,
      "byteOffset": 12751608,
      "componentType": 5126,
      "count": 386,
      "max": [
        0.997209906578064,
        0.95763099193573,
        0.9966706037521362
      ],
      "min": [
        -0.9972052574157715,
        -0.9564636945724487,
        -0.9954898357391357
      ],
      "type": "VEC3"
    },
    {
      "bufferView": 1,
      "componentType": 5126,
      "count": 386,
      "max": [
        1.0,
        1.0
      ],
      "min": [
        0.0,
        0.0
      ],
      "type": "VEC2"
    },
    {
      "bufferView": 0,
      "byteOffset": 3186744,
      "componentType": 5125,
      "count": 1848,
      "type": "SCALAR"
    },
    {
      "bufferView": 2,
      "byteOffset": 12756240,
      "componentType": 5126,
      "count": 33172,
      "max": [
        0.6455675959587097,
        4.541754722595215,
        0.6432945728302002
      ],
      "min": [
        -0.6455677151679993,
        3.6336872577667236,
        -0.08591407537460327
      ],
      "type": "VEC3"
    },
    {
      "bufferView": 2,
      "byteOffset": 13154304,
      "componentType": 5126,
      "count": 33172,
      "max": [
        0.999028742313385,
        0.9998079538345337,
        0.9999338388442993
      ],
      "min": [
        -0.9988805651664734,
        -0.9991286993026733,
        -0.9996925592422485
      ],
      "type": "VEC3"
    },
    {
      "bufferView": 3,
      "byteOffset": 8497984,
      "componentType": 5126,
      "count": 33172,
      "max": [
        0.6235294342041016,
        0.6235294342041016,
        0.6235294342041016,
        1.0
      ],
      "min": [
        0.007843137718737125,
        0.007843137718737125,
        0.007843137718737125,
        1.0
      ],
      "type": "VEC4"
    },
    {
      "bufferView": 0,
      "byteOffset": 3194136,
      "componentType": 5125,
      "count": 199020,
      "type": "SCALAR"
    }
  ],
  "asset": {
    "extras": {
      "author": "defnotdan (https://sketchfab.com/defnotdan)",
      "license": "CC-BY-4.0 (http://creativecommons.org/licenses/by/4.0/)",
      "source": "https://sketchfab.com/3d-models/3december-day-17-bug-cf5396b6d5ad4f5484761b90086b7e09",
      "title": "3December Day 17 Bug"
    },
    "generator": "Sketchfab-12.67.0",
    "version": "2.0"
  },
  "bufferViews": [
    {
      "buffer": 0,
      "byteLength": 3990216,
      "name": "floatBufferViews",
      "target": 34963
    },
    {
      "buffer": 0,
      "byteLength": 3088,
      "byteOffset": 3990216,
      "byteStride": 8,
      "name": "floatBufferViews",
      "target": 34962
    },
    {
      "buffer": 0,
      "byteLength": 13552368,
      "byteOffset": 3993304,
      "byteStride": 12,
      "name": "floatBufferViews",
      "target": 34962
    },
    {
      "buffer": 0,
      "byteLength": 9028736,
      "byteOffset": 17545672,
      "byteStride": 16,
      "name": "floatBufferViews",
      "target": 34962
    }
  ],
  "buffers": [
    {
      "byteLength": 26574408,
      "uri": "scene.bin"
    }
  ],
  "materials": [
    {
      "doubleSided": true,
      "name": "Material",
      "pbrMetallicRoughness": {
        "metallicFactor": 0.0,
        "roughnessFactor": 0.4881239017687224
      }
    },
    {
      "doubleSided": true,
      "name": "Material.002",
      "pbrMetallicRoughness": {
        "baseColorFactor": [
          0.035218,
          0.035218,
          0.035218,
          1.0
        ],
        "metallicFactor": 0.0,
        "roughnessFactor": 0.5
      }
    },
    {
      "doubleSided": true,
      "name": "Material.001",
      "pbrMetallicRoughness": {
        "metallicFactor": 0.0,
        "roughnessFactor": 0.0
      }
    }
  ],
  "meshes": [
    {
      "name": "Object_0",
      "primitives": [
        {
          "attributes": {
            "COLOR_0": 2,
            "NORMAL": 1,
            "POSITION": 0
          },
          "indices": 3,
          "material": 0,
          "mode": 4
        }
      ]
    },
    {
      "name": "Object_1",
      "primitives": [
        {
          "attributes": {
            "COLOR_0": 6,
            "NORMAL": 5,
            "POSITION": 4
          },
          "indices": 7,
          "material": 0,
          "mode": 4
        }
      ]
    },
    {
      "name": "Object_2",
      "primitives": [
        {
          "attributes": {
            "COLOR_0": 10,
            "NORMAL": 9,
            "POSITION": 8
          },
          "indices": 11,
          "material": 0,
          "mode": 4
        }
      ]
    },
    {
      "name": "Object_3",
      "primitives": [
        {
          "attributes": {
            "COLOR_0": 14,
            "NORMAL": 13,
            "POSITION": 12
          },
          "indices": 15,
          "material": 0,
          "mode": 4
        }
      ]
    },
    {
      "name": "Object_4",
      "primitives": [
        {
          "attributes": {
            "COLOR_0": 18,
            "NORMAL": 17,
            "POSITION": 16
          },
          "indices": 19,
          "material": 0,
          "mode": 4
        }
      ]
    },
    {
      "name": "Object_5",
      "primitives": [
        {
          "attributes": {
            "COLOR_0": 22,
            "NORMAL": 21,
            "POSITION": 20
          },
          "indices": 23,
          "material": 0,
          "mode": 4
        }
      ]
    },
    {
      "name": "Object_6",
      "primitives": [
        {
          "attributes": {
            "COLOR_0": 26,
            "NORMAL": 25,
            "POSITION": 24
          },
          "indices": 27,
          "material": 0,
          "mode": 4
        }
      ]
    },
    {
      "name": "Object_7",
      "primitives": [
        {
          "attributes": {
            "COLOR_0": 30,
            "NORMAL": 29,
            "POSITION": 28
          },
          "indices": 31,
          "material": 0,
          "mode": 4
        }
      ]
    },
    {
      "name": "Object_8",
      "primitives": [
        {
          "attributes": {
            "COLOR_0": 34,
            "NORMAL": 33,
            "POSITION": 32
          },
          "indices": 35,
          "material": 0,
          "mode": 4
        }
      ]
    },
    {
      "name": "Object_9",
      "primitives": [
        {
          "attributes": {
            "NORMAL": 37,
            "POSITION": 36,
            "TEXCOORD_0": 38
          },
          "indices": 39,
          "material": 1,
          "mode": 4
        }
      ]
    },
    {
      "name": "Object_10",
      "primitives": [
        {
          "attributes": {
            "COLOR_0": 42,
            "NORMAL": 41,
            "POSITION": 40
          },
          "indices": 43,
          "material": 2,
          "mode": 4
        }
      ]
    }
  ],
  "nodes": [
    {
      "children": [
        1
      ],
      "matrix": [
        1.0,
        0.0,
        0.0,
        0.0,
        0.0,
        2.220446049250313e-16,
        -1.0,
        0.0,
        0.0,
        1.0,
        2.220446049250313e-16,
        0.0,
        0.0,
        0.0,
        0.0,
        1.0
      ],
      "name": "Sketchfab_model"
    },
    {
      "children": [
        2
      ],
      "name": "root"
    },
    {
      "children": [
        3,
        13,
        15
      ],
      "matrix": [
        1.0,
        0.0,
        0.0,
        0.0,
        0.0,
        2.220446049250313e-16,
        1.0,
        0.0,
        0.0,
        -1.0,
        2.220446049250313e-16,
        0.0,
        0.0,
        0.0,
        0.0,
        1.0
      ],
      "name": "GLTF_SceneRootNode"
    },
    {
      "children": [
        4,
        5,
        6,
        7,
        8,
        9,
        10,
        11,
        12
      ],
      "matrix": [
        1.0,
        0.0,
        -0.0,
        0.0,
        -0.0,
        0.07416114632511894,
        -0.9972462706752752,
        0.0,
        0.0,
        0.9972462706752752,
        0.07416114632511894,
        0.0,
        0.0,
        2.972198963165283,
        0.0,
        1.0
      ],
      "name": "Quad Sphere_0"
    },
    {
      "mesh": 0,
      "name": "Object_4"
    },
    {
      "mesh": 1,
      "name": "Object_5"
    },
    {
      "mesh": 2,
      "name": "Object_6"
    },
    {
      "mesh": 3,
      "name": "Object_7"
    },
    {
      "mesh": 4,
      "name": "Object_8"
    },
    {
      "mesh": 5,
      "name": "Object_9"
    },
    {
      "mesh": 6,
      "name": "Object_10"
    },
    {
      "mesh": 7,
      "name": "Object_11"
    },
    {
      "mesh": 8,
      "name": "Object_12"
    },
    {
      "children": [
        14
      ],
      "matrix": [
        1.0,
        0.0,
        0.0,
        0.0,
        0.0,
        1.0,
        0.0,
        0.0,
        0.0,
        0.0,
        1.0,
        0.0,
        -0.19877761602401733,
        3.540134906768799,
        0.3701797425746918,
        1.0
      ],
      "name": "BezierCurve.003_1"
    },
    {
      "mesh": 9,
      "name": "Object_14"
    },
    {
      "children": [
        16
      ],
      "name": "Sphere_2"
    },
    {
      "mesh": 10,
      "name": "Object_16"
    }
  ],
  "scene": 0,
  "scenes": [
    {
      "name": "Sketchfab_Scene",
      "nodes": [
        0
      ]
    }
  ]
}
